<svg xmlns="http://www.w3.org/2000/svg" width="100" height="100" viewBox="0 0 56 56">
  <circle cx="28" cy="28" r="28" fill="#fb923c" />
  <g transform="translate(16, 14)" fill="none" stroke="white" stroke-width="2" stroke-linecap="round" stroke-linejoin="round">
    <path d="M7 16.3c2.2 0 4-1.83 4-4.05 0-1.16-.57-2.26-1.71-3.19S7.29 6.75 7 5.3c-.29 1.45-1.14 2.84-2.29 3.76S3 11.1 3 12.25c0 2.22 1.8 4.05 4 4.05zM12.56 6.6A10.97 10.97 0 0 0 14 3.02c.5 2.5 2 4.9 4 6.5s3 3.5 3 5.5a6.98 6.98 0 0 1-11.91 4.97"/>
  </g>
  <text x="28" y="44" text-anchor="middle" font-family="Inter, sans-serif" font-size="7" font-weight="700"
    fill="white" letter-spacing="1">DRY</text>
</svg>
