<svg xmlns="http://www.w3.org/2000/svg" width="100" height="100" viewBox="0 0 56 56">
  <circle cx="28" cy="28" r="28" fill="#fb923c" />
  <g transform="translate(16, 14)" fill="none" stroke="white" stroke-width="2" stroke-linecap="round" stroke-linejoin="round">
    <path d="m10 20-1.25-2.5L6 18M10 4 8.75 6.5 6 6m8 14 1.25-2.5L18 18m-4-14 1.25 2.5L18 6m-1 15-3-6h-4m0-12-3 6 1.5 3M2 12h6.5L10 9m10 1-1.5 2 1.5 2M22 12h-6.5L14 15m-10-5 1.5 2L4 14m3 7 3-6-1.5-3m0 0 3 6h4"/>
  </g>
  <text x="28" y="44" text-anchor="middle" font-family="Inter, sans-serif" font-size="7" font-weight="700"
    fill="white" letter-spacing="1">COOL</text>
</svg>
